<?xml version="1.0" encoding="UTF-8"?>
<!DOCTYPE svg PUBLIC "-//W3C//DTD SVG 1.1//EN" "http://www.w3.org/Graphics/SVG/1.1/DTD/svg11.dtd">
<svg xmlns="http://www.w3.org/2000/svg" version="1.1" width="300px" height="300px" style="shape-rendering:geometricPrecision; text-rendering:geometricPrecision; image-rendering:optimizeQuality; fill-rule:evenodd; clip-rule:evenodd" xmlns:xlink="http://www.w3.org/1999/xlink">
<g><path style="opacity:1" fill="#fdfdfd" d="M -0.5,-0.5 C 99.5,-0.5 199.5,-0.5 299.5,-0.5C 299.5,99.5 299.5,199.5 299.5,299.5C 199.5,299.5 99.5,299.5 -0.5,299.5C -0.5,199.5 -0.5,99.5 -0.5,-0.5 Z"/></g>
<g><path style="opacity:1" fill="#111111" d="M 126.5,13.5 C 128.144,18.5896 129.144,23.923 129.5,29.5C 129.831,37.1955 129.497,44.8622 128.5,52.5C 127.833,52.8333 127.167,53.1667 126.5,53.5C 118.797,45.2953 111.631,36.6286 105,27.5C 104.5,38.8284 104.333,50.1618 104.5,61.5C 103.178,61.33 102.011,61.6634 101,62.5C 92.6429,52.3104 84.4762,41.9771 76.5,31.5C 77.7046,29.8624 79.0379,29.5291 80.5,30.5C 87.2413,38.5679 93.5746,46.9012 99.5,55.5C 99.56,56.0431 99.8933,56.3764 100.5,56.5C 101.499,45.1862 101.832,33.8529 101.5,22.5C 102.884,21.1991 104.384,21.1991 106,22.5C 111.999,30.6613 118.166,38.6613 124.5,46.5C 124.56,47.0431 124.893,47.3764 125.5,47.5C 126.499,36.1862 126.832,24.8529 126.5,13.5 Z"/></g>
<g><path style="opacity:1" fill="#181818" d="M 184.5,16.5 C 186.346,16.2222 187.68,16.8888 188.5,18.5C 185.941,23.3543 184.108,28.3543 183,33.5C 191.26,29.9539 197.927,31.9539 203,39.5C 204.948,46.865 203.115,53.0317 197.5,58C 187.814,62.7407 180.647,60.2407 176,50.5C 174.812,51.5634 174.312,52.8967 174.5,54.5C 173.022,54.762 171.689,54.4287 170.5,53.5C 175.174,41.143 179.84,28.8097 184.5,16.5 Z"/></g>
<g><path style="opacity:1" fill="#181818" d="M 153.5,39.5 C 150.713,38.5233 147.713,38.19 144.5,38.5C 144.263,39.791 144.596,40.791 145.5,41.5C 147.659,47.5841 151.992,50.0841 158.5,49C 160.519,48.5503 162.352,47.717 164,46.5C 164.692,47.0253 165.192,47.6919 165.5,48.5C 159.01,53.5693 152.343,53.736 145.5,49C 141.681,43.7952 140.514,37.9618 142,31.5C 148.814,21.9639 156.814,20.9639 166,28.5C 168.209,31.789 169.042,35.4557 168.5,39.5C 163.5,39.5 158.5,39.5 153.5,39.5 Z"/></g>
<g><path style="opacity:1" fill="#484848" d="M 126.5,13.5 C 127.209,12.596 128.209,12.2627 129.5,12.5C 129.5,18.1667 129.5,23.8333 129.5,29.5C 129.144,23.923 128.144,18.5896 126.5,13.5 Z"/></g>
<g><path style="opacity:1" fill="#f2f2f2" d="M 151.5,26.5 C 159.441,25.4636 163.775,28.7969 164.5,36.5C 158.155,36.3473 151.822,36.014 145.5,35.5C 145.884,31.4448 147.884,28.4448 151.5,26.5 Z"/></g>
<g><path style="opacity:1" fill="#404040" d="M 126.5,13.5 C 126.832,24.8529 126.499,36.1862 125.5,47.5C 124.893,47.3764 124.56,47.0431 124.5,46.5C 125.167,35.5 125.833,24.5 126.5,13.5 Z"/></g>
<g><path style="opacity:1" fill="#f7f7f7" d="M 185.5,34.5 C 199.002,34.8252 202.835,41.1585 197,53.5C 184.084,59.7139 178.084,55.7139 179,41.5C 180.694,38.6424 182.861,36.309 185.5,34.5 Z"/></g>
<g><path style="opacity:1" fill="#9d9d9d" d="M 153.5,39.5 C 150.302,38.9644 147.635,39.631 145.5,41.5C 144.596,40.791 144.263,39.791 144.5,38.5C 147.713,38.19 150.713,38.5233 153.5,39.5 Z"/></g>
<g><path style="opacity:1" fill="#757575" d="M 101.5,22.5 C 101.832,33.8529 101.499,45.1862 100.5,56.5C 99.8933,56.3764 99.56,56.0431 99.5,55.5C 100.167,44.5 100.833,33.5 101.5,22.5 Z"/></g>
<g><path style="opacity:1" fill="#171717" d="M 236.5,48.5 C 237.552,48.3505 238.552,48.5172 239.5,49C 245.096,54.5931 249.93,60.7598 254,67.5C 254.697,84.468 246.531,92.3013 229.5,91C 222.075,86.0767 215.742,79.9101 210.5,72.5C 219.199,64.4928 227.865,56.4928 236.5,48.5 Z"/></g>
<g><path style="opacity:1" fill="#f9f9f9" d="M 236.5,53.5 C 237.552,53.3505 238.552,53.5172 239.5,54C 243.382,58.2139 246.882,62.7139 250,67.5C 251.338,82.4944 244.504,88.9944 229.5,87C 223.851,83.5525 219.184,79.0525 215.5,73.5C 222.52,66.8118 229.52,60.1451 236.5,53.5 Z"/></g>
<g><path style="opacity:1" fill="#151515" d="M 70.5,73.5 C 74.5,74.1667 78.5,74.8333 82.5,75.5C 81.7109,75.7828 81.0442,76.2828 80.5,77C 74.5092,77.4995 68.5092,77.6662 62.5,77.5C 61.0265,83.7481 63.0265,88.4148 68.5,91.5C 67.8551,92.646 67.0217,93.646 66,94.5C 55.8053,85.9669 45.972,77.1335 36.5,68C 36.6301,66.9412 37.1301,66.1079 38,65.5C 44.3729,71.5417 51.0396,77.2084 58,82.5C 58.3333,74.5 58.6667,66.5 59,58.5C 59.6667,57.8333 60.3333,57.1667 61,56.5C 61.4994,62.1569 61.6661,67.8236 61.5,73.5C 64.5,73.5 67.5,73.5 70.5,73.5 Z"/></g>
<g><path style="opacity:1" fill="#707070" d="M 70.5,73.5 C 74.8839,73.1744 79.2172,73.5078 83.5,74.5C 83.3764,75.1067 83.0431,75.44 82.5,75.5C 78.5,74.8333 74.5,74.1667 70.5,73.5 Z"/></g>
<g><path style="opacity:1" fill="#191919" d="M 39.5,87.5 C 40.8333,87.5 42.1667,87.5 43.5,87.5C 43.719,88.675 43.3857,89.675 42.5,90.5C 36.4922,93.3515 34.3256,98.0182 36,104.5C 40.1278,111.489 45.9611,113.322 53.5,110C 57.3129,106.157 58.3129,101.657 56.5,96.5C 60.0566,95.1324 61.7232,96.4657 61.5,100.5C 59.3209,113.422 51.9875,117.922 39.5,114C 32.9151,109.532 30.7485,103.365 33,95.5C 35.0007,92.6693 37.1673,90.0026 39.5,87.5 Z"/></g>
<g><path style="opacity:1" fill="#191919" d="M 246.5,93.5 C 262.927,92.7516 268.427,100.085 263,115.5C 260.643,118.091 257.809,119.758 254.5,120.5C 252.578,112.666 249.578,105.332 245.5,98.5C 240.882,101.669 239.382,106.002 241,111.5C 243.075,115.039 245.242,118.373 247.5,121.5C 244.383,121.358 241.883,120.024 240,117.5C 233.786,107.181 235.952,99.1809 246.5,93.5 Z"/></g>
<g><path style="opacity:1" fill="#f0f0f0" d="M 249.5,96.5 C 258.315,96.4804 262.482,100.814 262,109.5C 261.218,112.076 259.718,114.076 257.5,115.5C 254.042,109.574 251.375,103.241 249.5,96.5 Z"/></g>
<g><path style="opacity:1" fill="#191919" d="M 28.5,120.5 C 36.3075,120.552 43.9742,121.552 51.5,123.5C 52.3857,124.325 52.719,125.325 52.5,126.5C 51.1266,126.343 49.7932,126.51 48.5,127C 52.3041,132.454 52.1374,137.954 48,143.5C 42.536,146.916 38.2027,145.916 35,140.5C 34.5676,135.154 34.7343,129.82 35.5,124.5C 31.2065,123.536 28.0399,124.869 26,128.5C 25.1872,132.664 25.6872,136.664 27.5,140.5C 24.6824,141.881 23.1824,140.881 23,137.5C 21.0762,130.441 22.9096,124.775 28.5,120.5 Z"/></g>
<g><path style="opacity:1" fill="#181818" d="M 269.5,120.5 C 270.586,120.62 271.253,121.287 271.5,122.5C 271.167,123.167 270.833,123.833 270.5,124.5C 263.332,128.583 256.332,132.916 249.5,137.5C 257.684,140.629 266.017,143.296 274.5,145.5C 274.5,146.5 274.5,147.5 274.5,148.5C 264.5,145.833 254.5,143.167 244.5,140.5C 244.261,138.533 244.594,136.699 245.5,135C 253.73,130.392 261.73,125.559 269.5,120.5 Z"/></g>
<g><path style="opacity:1" fill="#f0f0f0" d="M 38.5,125.5 C 46.0954,125.265 49.262,128.932 48,136.5C 45.9965,141.836 42.6631,142.836 38,139.5C 37.5386,134.816 37.7053,130.149 38.5,125.5 Z"/></g>
<g><path style="opacity:1" fill="#161616" d="M 22.5,164.5 C 20.7354,163.539 18.7354,163.205 16.5,163.5C 16.5,162.5 16.5,161.5 16.5,160.5C 18.1667,160.5 19.8333,160.5 21.5,160.5C 21.5,157.5 21.5,154.5 21.5,151.5C 22.5,151.5 23.5,151.5 24.5,151.5C 24.5,154.167 24.5,156.833 24.5,159.5C 31.1777,159.211 37.8444,158.711 44.5,158C 46.7289,155.447 47.0623,152.614 45.5,149.5C 47.2592,148.246 48.7592,148.579 50,150.5C 51.2398,155.853 49.4065,159.686 44.5,162C 38.143,162.346 31.8097,162.846 25.5,163.5C 25.5,165.167 25.5,166.833 25.5,168.5C 24.5,168.5 23.5,168.5 22.5,168.5C 22.5,167.167 22.5,165.833 22.5,164.5 Z"/></g>
<g><path style="opacity:1" fill="#1b1b1b" d="M 253.5,152.5 C 268.384,152.203 274.217,159.203 271,173.5C 267.17,178.838 262.003,181.171 255.5,180.5C 255.66,172.715 256.66,165.048 258.5,157.5C 251.172,156.485 247.505,159.818 247.5,167.5C 247.353,170.253 248.02,172.753 249.5,175C 248.289,176.578 246.955,176.745 245.5,175.5C 241.124,165.272 243.791,157.605 253.5,152.5 Z"/></g>
<g><path style="opacity:1" fill="#ededed" d="M 260.5,157.5 C 266.223,157.443 269.223,160.277 269.5,166C 269.206,173.129 265.539,176.629 258.5,176.5C 259.354,170.188 260.021,163.855 260.5,157.5 Z"/></g>
<g><path style="opacity:1" fill="#595959" d="M 16.5,160.5 C 16.5,161.5 16.5,162.5 16.5,163.5C 18.7354,163.205 20.7354,163.539 22.5,164.5C 20.1667,164.5 17.8333,164.5 15.5,164.5C 15.2322,162.901 15.5655,161.568 16.5,160.5 Z"/></g>
<g><path style="opacity:1" fill="#1b1b1b" d="M 39.5,169.5 C 47.6613,168.165 52.8279,171.499 55,179.5C 57.1091,184.441 56.9425,189.275 54.5,194C 53.552,194.483 52.552,194.649 51.5,194.5C 52.481,189.871 52.6477,185.204 52,180.5C 49.6175,173.413 45.2841,171.747 39,175.5C 38.8917,182.911 38.225,190.245 37,197.5C 31.6323,202.732 26.299,202.732 21,197.5C 17.42,192.011 15.92,186.011 16.5,179.5C 17.8333,179.5 19.1667,179.5 20.5,179.5C 19.6439,186.094 21.3106,191.927 25.5,197C 28.9563,198.123 31.7897,197.29 34,194.5C 34.3333,187.833 34.6667,181.167 35,174.5C 36.025,172.313 37.525,170.646 39.5,169.5 Z"/></g>
<g><path style="opacity:1" fill="#191919" d="M 239.5,182.5 C 252.361,186.595 265.028,191.262 277.5,196.5C 277.081,197.672 276.415,198.672 275.5,199.5C 264.275,195.055 252.942,190.888 241.5,187C 238.715,186.274 238.048,184.774 239.5,182.5 Z"/></g>
<g><path style="opacity:1" fill="#161616" d="M 236.5,195.5 C 250.562,194.397 257.062,200.73 256,214.5C 250.398,224.813 242.565,226.979 232.5,221C 224.774,211.013 226.108,202.513 236.5,195.5 Z"/></g>
<g><path style="opacity:1" fill="#f5f5f5" d="M 238.5,198.5 C 250.956,199.128 255.123,205.128 251,216.5C 242.923,222.736 236.256,221.403 231,212.5C 230.252,206.084 232.752,201.417 238.5,198.5 Z"/></g>
<g><path style="opacity:1" fill="#1c1c1c" d="M 48.5,201.5 C 51.5139,205.005 54.1806,208.838 56.5,213C 55.4642,214.617 54.2975,214.784 53,213.5C 51.2481,210.328 49.2481,207.328 47,204.5C 46.7613,203.212 47.2613,202.212 48.5,201.5 Z"/></g>
<g><path style="opacity:1" fill="#181818" d="M 212.5,208.5 C 221.25,218.095 229.917,227.928 238.5,238C 236.333,241.5 234.5,241.333 233,237.5C 229.494,249.502 221.994,253.336 210.5,249C 201.311,240.558 201.311,232.224 210.5,224C 213.444,223.03 216.444,222.196 219.5,221.5C 216.904,217.981 214.071,214.648 211,211.5C 210.761,210.212 211.261,209.212 212.5,208.5 Z"/></g>
<g><path style="opacity:1" fill="#181818" d="M 70.5,211.5 C 73.3892,211.999 74.0558,213.499 72.5,216C 62.8333,223.833 53.1667,231.667 43.5,239.5C 42.914,239.291 42.414,238.957 42,238.5C 41.8374,236.613 42.6707,235.113 44.5,234C 53.4252,226.719 62.0918,219.219 70.5,211.5 Z"/></g>
<g><path style="opacity:1" fill="#181818" d="M 79.5,220.5 C 80.6266,221.122 81.6266,221.955 82.5,223C 73.8404,233.159 64.8404,242.992 55.5,252.5C 54.1124,251.409 53.6124,250.076 54,248.5C 62.7066,239.296 71.2066,229.963 79.5,220.5 Z"/></g>
<g><path style="opacity:1" fill="#f7f7f7" d="M 213.5,225.5 C 220.663,224.331 225.829,226.998 229,233.5C 229.674,243.824 224.841,248.324 214.5,247C 208.636,243.434 206.47,238.267 208,231.5C 209.36,228.977 211.193,226.977 213.5,225.5 Z"/></g>
<g><path style="opacity:1" fill="#171717" d="M 87.5,228.5 C 90.317,228.801 90.9837,230.134 89.5,232.5C 96.5834,232.126 102.083,234.793 106,240.5C 106.701,243.928 106.368,247.262 105,250.5C 101.997,255.656 98.8301,260.656 95.5,265.5C 94.2801,265.113 93.6135,264.28 93.5,263C 97.1838,257.154 100.184,250.988 102.5,244.5C 100.407,237.615 95.7403,235.115 88.5,237C 83.9141,242.421 79.9141,248.255 76.5,254.5C 75.2801,254.113 74.6135,253.28 74.5,252C 78.4578,243.914 82.7911,236.081 87.5,228.5 Z"/></g>
<g><path style="opacity:1" fill="#1b1b1b" d="M 185.5,238.5 C 200.643,238.46 206.477,245.793 203,260.5C 194.065,270.095 185.732,269.762 178,259.5C 177.251,258.365 177.417,257.365 178.5,256.5C 185.62,254.105 192.286,250.939 198.5,247C 195.188,242.856 190.855,241.522 185.5,243C 182.232,243.936 179.899,245.936 178.5,249C 176.333,249.5 175.5,248.667 176,246.5C 178.772,243.217 181.939,240.55 185.5,238.5 Z"/></g>
<g><path style="opacity:1" fill="#1b1b1b" d="M 164.5,245.5 C 165.833,245.5 167.167,245.5 168.5,245.5C 170.267,254.767 171.6,264.101 172.5,273.5C 169.95,273.439 168.45,272.106 168,269.5C 165.904,273.135 162.737,275.135 158.5,275.5C 158.5,274.167 158.5,272.833 158.5,271.5C 161.785,271.731 164.285,270.397 166,267.5C 166.698,260.08 166.198,252.747 164.5,245.5 Z"/></g>
<g><path style="opacity:1" fill="#171717" d="M 133.5,247.5 C 134.978,247.238 136.311,247.571 137.5,248.5C 134.694,260.089 132.194,271.755 130,283.5C 129.439,284.022 128.772,284.355 128,284.5C 120.223,282.511 112.39,280.845 104.5,279.5C 104.5,278.5 104.5,277.5 104.5,276.5C 111.652,277.081 118.652,278.414 125.5,280.5C 127.591,275.715 128.924,270.715 129.5,265.5C 123.817,264.53 118.15,263.363 112.5,262C 111.027,261.29 110.36,260.124 110.5,258.5C 115.766,259.753 121.099,260.753 126.5,261.5C 127.833,261.167 129.167,260.833 130.5,260.5C 131.629,256.188 132.629,251.854 133.5,247.5 Z"/></g>
<g><path style="opacity:1" fill="#eeeeee" d="M 196.5,251.5 C 197.833,251.5 199.167,251.5 200.5,251.5C 200.668,262.082 195.668,265.915 185.5,263C 184.101,261.938 183.101,260.605 182.5,259C 187.041,256.23 191.708,253.73 196.5,251.5 Z"/></g>
</svg>
